<?xml version="1.0" encoding="UTF-8"?>
<svg width="195px" height="59px" viewBox="0 0 195 59" version="1.1" xmlns="http://www.w3.org/2000/svg" xmlns:xlink="http://www.w3.org/1999/xlink">
    <!-- Generator: Sketch 43.2 (39069) - http://www.bohemiancoding.com/sketch -->
    <title>100+</title>
    <desc>Created with Sketch.</desc>
    <defs></defs>
    <g id="Desktop" stroke="none" stroke-width="1" fill="none" fill-rule="evenodd">
        <g id="Homepage" transform="translate(-134.000000, -3037.000000)" fill="#4A4A4A">
            <g id="Cool-things" transform="translate(73.000000, 1843.000000)">
                <g id="SE-Copy-2" transform="translate(0.000000, 1080.000000)">
                    <path d="M80.7753906,121.567383 C76.0019531,124.917969 70.4482422,126.157227 61.40625,126.34082 L61.40625,128.40625 C69.8974609,128.40625 72.3300781,129.553711 72.3300781,138.549805 L72.3300781,161.31543 C72.3300781,167.419922 68.5664062,169.026367 62.3701172,169.026367 L62.3701172,171 C65.2617188,170.908203 70.9990234,170.632812 76.828125,170.632812 C81.9228516,170.632812 87.2470703,170.908203 89.8173828,171 L89.8173828,169.026367 C83.2998047,169.026367 80.7753906,167.328125 80.7753906,161.31543 L80.7753906,121.567383 Z M120.477539,121.291992 C133.696289,121.291992 143.197266,131.068359 143.197266,145.985352 C143.197266,161.040039 133.604492,172.331055 119.421875,172.331055 C106.34082,172.331055 96.65625,162.646484 96.65625,147.5 C96.65625,132.628906 106.06543,121.291992 120.477539,121.291992 Z M119.605469,122.944336 C111.527344,122.944336 105.790039,131.894531 105.790039,147.224609 C105.790039,164.115234 112.491211,170.632812 120.293945,170.632812 C128.37207,170.632812 134.109375,161.59082 134.109375,146.260742 C134.109375,129.461914 127.408203,122.944336 119.605469,122.944336 Z M176.886719,121.291992 C190.105469,121.291992 199.606445,131.068359 199.606445,145.985352 C199.606445,161.040039 190.013672,172.331055 175.831055,172.331055 C162.75,172.331055 153.06543,162.646484 153.06543,147.5 C153.06543,132.628906 162.474609,121.291992 176.886719,121.291992 Z M176.014648,122.944336 C167.936523,122.944336 162.199219,131.894531 162.199219,147.224609 C162.199219,164.115234 168.900391,170.632812 176.703125,170.632812 C184.78125,170.632812 190.518555,161.59082 190.518555,146.260742 C190.518555,129.461914 183.817383,122.944336 176.014648,122.944336 Z M233.938477,136.208984 L233.938477,114.040039 L230.541992,114.040039 L230.541992,136.208984 L208.648438,136.208984 L208.648438,139.054688 L230.541992,139.054688 L230.541992,161.131836 L233.938477,161.131836 L233.938477,139.054688 L255.740234,139.054688 L255.740234,136.208984 L233.938477,136.208984 Z" id="100+"></path>
                </g>
            </g>
        </g>
    </g>
</svg>