<?xml version="1.0" encoding="UTF-8"?>
<svg width="1000px" height="1000px" viewBox="0 0 1000 1000" version="1.1" xmlns="http://www.w3.org/2000/svg" xmlns:xlink="http://www.w3.org/1999/xlink">
    <!-- Generator: Sketch 43.2 (39069) - http://www.bohemiancoding.com/sketch -->
    <title>dribbble</title>
    <desc>Created with Sketch.</desc>
    <defs></defs>
    <g id="Page-1" stroke="none" stroke-width="1" fill="none" fill-rule="evenodd">
        <g id="dribbble" fill-rule="nonzero" fill="#EA4C89">
            <path d="M0,500 C0,409.333 22.334,325.667 67,249 C111.667,172.333 172.334,111.667 249,67 C325.667,22.333 409.334,0 500,0 C590.667,0 674.334,22.333 751,67 C827.667,111.667 888.334,172.333 933,249 C977.667,325.667 1000,409.333 1000,500 C1000,590.667 977.667,674.333 933,751 C888.334,827.667 827.667,888.333 751,933 C674.334,977.667 590.667,1000 500,1000 C409.334,1000 325.667,977.667 249,933 C172.334,888.333 111.667,827.667 67,751 C22.334,674.333 0,590.667 0,500 Z M83,500 C83,604 118,695.667 188,775 C220,712.333 270.667,652.667 340,596 C409.334,539.333 477,503.667 543,489 C533,465.667 523.334,444.667 514,426 C399.334,462.667 275.334,481 142,481 C116,481 96.667,480.667 84,480 C84,482.667 83.834,486 83.5,490 C83.167,494 83,497.333 83,500 Z M96,397 C110.667,398.333 132.334,399 161,399 C272.334,399 378,384 478,354 C427.334,264 371.667,189 311,129 C258.334,155.667 213.167,192.667 175.5,240 C137.834,287.333 111.334,339.667 96,397 Z M245,829 C320.334,887.667 405.334,917 500,917 C549.334,917 598.334,907.667 647,889 C633.667,775 607.667,664.667 569,558 C507.667,571.333 445.834,605 383.5,659 C321.167,713 275,769.667 245,829 Z M398,97 C456.667,157.667 511,233.333 561,324 C651.667,286 720,237.667 766,179 C688.667,115 600,83 500,83 C466,83 432,87.667 398,97 Z M597,395 C607,416.333 618.334,443.333 631,476 C680.334,471.333 734,469 792,469 C833.334,469 874.334,470 915,472 C909.667,381.333 877,300.667 817,230 C773.667,294.667 700.334,349.667 597,395 Z M656,546 C690,644.667 713,746 725,850 C777.667,816 820.667,772.333 854,719 C887.334,665.667 907.334,608 914,546 C865.334,542.667 821,541 781,541 C744.334,541 702.667,542.667 656,546 Z" id="Shape"></path>
        </g>
    </g>
</svg>