<?xml version="1.0" encoding="UTF-8"?>
<svg width="274px" height="32px" viewBox="0 0 274 32" version="1.1" xmlns="http://www.w3.org/2000/svg" xmlns:xlink="http://www.w3.org/1999/xlink">
    <!-- Generator: Sketch 43.2 (39069) - http://www.bohemiancoding.com/sketch -->
    <title>Group 2</title>
    <desc>Created with Sketch.</desc>
    <defs>
        <polygon id="path-1" points="62.2157418 0 0 0 0 31.984 124.431484 31.984 124.431484 0 62.2157418 0"></polygon>
    </defs>
    <g id="Symbols" stroke="none" stroke-width="1" fill="none" fill-rule="evenodd">
        <g id="Header" transform="translate(-53.000000, -24.000000)">
            <g id="Group-2">
                <g transform="translate(53.000000, 24.000000)">
                    <g id="Intercom_logo">
                        <path d="M42.3926177,20.6194667 L42.3926177,11.3802667 C42.3926177,10.8018667 42.8607368,10.3333333 43.4386254,10.3333333 C44.0162476,10.3333333 44.4846331,10.8018667 44.4846331,11.3802667 L44.4846331,20.6194667 C44.4846331,21.1978667 44.0162476,21.6664 43.4386254,21.6664 C42.8610032,21.6664 42.3926177,21.1978667 42.3926177,20.6194667" id="Fill-1" fill="#1F8DED"></path>
                        <path d="M54.1877795,21.0272 L49.6874954,13.8818667 L49.6874954,20.6514667 C49.6874954,21.212 49.2334972,21.6664 48.673193,21.6664 C48.1131553,21.6664 47.6591571,21.212 47.6591571,20.6514667 L47.6591571,11.7032 C47.6591571,10.9466667 48.2719481,10.3333333 49.0278126,10.3333333 L49.0922888,10.3333333 C49.5622729,10.3333333 49.9992196,10.5744 50.249931,10.972 L54.6862717,18.0058667 L54.6860053,11.3482667 C54.6860053,10.7877333 55.14027,10.3333333 55.7003077,10.3333333 C56.2603454,10.3333333 56.7143436,10.7877333 56.7143436,11.3482667 L56.7143436,20.2965333 C56.7143436,21.0530667 56.1015526,21.6664 55.3456882,21.6664 C54.8754377,21.6664 54.438491,21.4250667 54.1877795,21.0272" id="Fill-2" fill="#1F8DED"></path>
                        <path d="M63.9495408,12.2514667 L63.9498073,20.7074667 C63.9498073,21.2370667 63.5205871,21.6664 62.9914553,21.6664 L62.8475827,21.6664 C62.3184509,21.6664 61.8894972,21.2370667 61.8894972,20.7074667 L61.8894972,12.2514667 L59.4937507,12.2514667 C58.9646189,12.2514667 58.5356652,11.8221333 58.5356652,11.2922667 C58.5356652,10.7626667 58.9646189,10.3333333 59.4937507,10.3333333 L66.3452874,10.3333333 C66.8744191,10.3333333 67.3036393,10.7626667 67.3036393,11.2922667 C67.3036393,11.8221333 66.8746855,12.2514667 66.3452874,12.2514667 L63.9495408,12.2514667" id="Fill-3" fill="#1F8DED"></path>
                        <path d="M68.9608394,20.7394667 L68.9608394,11.2605333 C68.9608394,10.7482667 69.3754058,10.3333333 69.8872196,10.3333333 L76.0995886,10.3333333 C76.6111359,10.3333333 77.0259688,10.7485333 77.0259688,11.2605333 L77.0259688,11.2762667 C77.0259688,11.7885333 76.6111359,12.2034667 76.0995886,12.2034667 L71.020883,12.2034667 L71.020883,14.8410667 L75.3810245,14.8410667 C75.8925718,14.8410667 76.3074047,15.256 76.3074047,15.7682667 C76.3074047,16.2802667 75.8925718,16.6952 75.3810245,16.6952 L71.020883,16.6952 L71.020883,19.7962667 L76.0995886,19.7962667 C76.6114023,19.7962667 77.0259688,20.2114667 77.0259688,20.7234667 L77.0259688,20.7394667 C77.0259688,21.2514667 76.6114023,21.6664 76.0995886,21.6664 L69.8872196,21.6664 C69.3756723,21.6664 68.9608394,21.2514667 68.9608394,20.7394667" id="Fill-4" fill="#1F8DED"></path>
                        <path d="M84.2883419,12.1394667 L81.5734111,12.1394667 L81.5734111,15.5282667 L84.3203136,15.5282667 C85.4862151,15.5282667 86.1570881,14.9210667 86.1570881,13.8498667 C86.1570881,12.9389333 85.4542434,12.1394667 84.2883419,12.1394667 Z M85.7137471,21.0584 L84.0967781,17.3826667 L81.589397,17.3826667 L81.589397,20.6477333 C81.589397,21.2104 81.1335337,21.6664 80.5713646,21.6664 L80.5311335,21.6664 C79.9689643,21.6664 79.5133675,21.2104 79.5133675,20.6477333 L79.5131011,11.3522667 C79.5131011,10.7896 79.9689643,10.3333333 80.5311335,10.3333333 L84.2883419,10.3333333 C86.9875532,10.3333333 88.2171317,12.0277333 88.2171317,13.8498667 C88.2171317,15.3685333 87.3866667,16.5674667 86.1411023,17.0309333 L87.574234,20.2309333 C87.8761002,20.9050667 87.3834695,21.6664 86.6454559,21.6664 C86.2418131,21.6664 85.87627,21.428 85.7137471,21.0584 L85.7137471,21.0584 Z" id="Fill-5" fill="#1F8DED"></path>
                        <path d="M97.9991418,20.5317333 C97.1526908,21.3949333 95.9708034,21.8744 94.7569443,21.8744 C93.5433516,21.8744 92.4094218,21.4746667 91.546985,20.6114667 C90.31714,19.3808 90.141562,17.8621333 90.141562,16.008 C90.141562,14.1536 90.31714,12.6352 91.546985,11.4042667 C92.4094218,10.5410667 93.5433516,10.1256 94.7569443,10.1256 C95.9708034,10.1256 97.1526908,10.5730667 97.9991418,11.4362667 C98.2943472,11.7389333 98.5248099,12.0872 98.6974571,12.4605333 C99.0078491,13.1314667 98.5061597,13.8978667 97.7673469,13.8978667 L97.7622847,13.8978667 C97.346919,13.8978667 96.9829744,13.6416 96.8180536,13.26 C96.73173,13.06 96.6134347,12.8794667 96.465832,12.6992 C96.0986902,12.2354667 95.459789,11.9957333 94.7569443,11.9957333 C94.1020572,11.9957333 93.4634223,12.2674667 93.0163513,12.7469333 C92.2338438,13.5621333 92.2338438,14.9688 92.2338438,16.008 C92.2338438,17.0469333 92.2338438,18.4536 93.0163513,19.2688 C93.4634223,19.7485333 94.1023236,20.02 94.7569443,20.02 C95.459789,20.02 96.0986902,19.7645333 96.4660984,19.3008 C96.6145004,19.1192 96.7333286,18.9245333 96.8199187,18.7106667 C96.9787115,18.3186667 97.348784,18.0538667 97.7713434,18.0538667 C98.5085576,18.0538667 99.008382,18.8165333 98.7030522,19.4882667 C98.5298721,19.8696 98.2975444,20.2256 97.9991418,20.5317333" id="Fill-6" fill="#1F8DED"></path>
                        <path d="M107.594917,12.7469333 C107.147579,12.2674667 106.460987,11.9957333 105.806366,11.9957333 C105.151479,11.9957333 104.46462,12.2674667 104.017283,12.7469333 C103.234775,13.5621333 103.202803,14.9688 103.202803,16.008 C103.202803,17.0469333 103.234775,18.4376 104.017549,19.2528 C104.46462,19.7325333 105.151479,20.0042667 105.806366,20.0042667 C106.460987,20.0042667 107.147846,19.7325333 107.594917,19.2528 C108.377424,18.4376 108.409396,17.0469333 108.409396,16.008 C108.409396,14.9688 108.377424,13.5621333 107.594917,12.7469333 Z M109.064283,20.5954667 C108.201846,21.4586667 107.019959,21.8744 105.806366,21.8744 C104.592507,21.8744 103.41062,21.4586667 102.548183,20.5954667 C101.318604,19.3648 101.110788,17.8621333 101.110788,16.008 C101.110788,14.1536 101.318338,12.6352 102.548183,11.4042667 C103.41062,10.5410667 104.592507,10.1256 105.8061,10.1256 C107.019959,10.1256 108.201846,10.5410667 109.064283,11.4042667 C110.294128,12.6352 110.501678,14.1536 110.501678,16.008 C110.501678,17.8621333 110.294128,19.3648 109.064283,20.5954667 L109.064283,20.5954667 Z" id="Fill-7" fill="#1F8DED"></path>
                        <g id="Group-11">
                            <mask id="mask-2" fill="white">
                                <use xlink:href="#path-1"></use>
                            </mask>
                            <g id="Clip-9"></g>
                            <path d="M122.435117,20.6674667 L122.435117,13.5784 L119.759352,20.7970667 C119.601358,21.2237333 119.194785,21.5066667 118.739987,21.5066667 C118.283058,21.5066667 117.874886,21.2208 117.718491,20.7912 L115.05658,13.4824 L115.05658,20.6674667 C115.05658,21.2192 114.609775,21.6666667 114.05853,21.6666667 C113.507284,21.6666667 113.060213,21.2192 113.060213,20.6674667 L113.060213,11.8885333 C113.060213,11.0296 113.755864,10.3333333 114.614038,10.3333333 L114.755513,10.3333333 C115.40667,10.3333333 115.988555,10.7394667 116.213423,11.3509333 L118.809525,18.4056 L121.420548,11.3485333 C121.646482,10.7384 122.227567,10.3333333 122.877659,10.3333333 C123.735833,10.3333333 124.431484,11.0296 124.431484,11.8885333 L124.431484,20.6674667 C124.431484,21.2192 123.984413,21.6666667 123.433167,21.6666667 C122.881922,21.6666667 122.435117,21.2192 122.435117,20.6674667" id="Fill-8" fill="#1F8DED" mask="url(#mask-2)"></path>
                            <path d="M27.7088123,17.5936 C27.7088123,18.1826667 27.2316345,18.6602667 26.6430887,18.6602667 C26.0545429,18.6602667 25.5773652,18.1826667 25.5773652,17.5936 L25.5773652,8 C25.5773652,7.41093333 26.0545429,6.93333333 26.6430887,6.93333333 C27.2316345,6.93333333 27.7088123,7.41093333 27.7088123,8 L27.7088123,17.5936 Z M27.3368747,24.2701333 C27.1724869,24.4112 23.2242476,27.7269333 15.9858532,27.7269333 C8.74745889,27.7269333 4.79975243,24.4112 4.63483171,24.2701333 C4.18829355,23.8866667 4.13633952,23.2133333 4.51946714,22.7658667 C4.90179546,22.3194667 5.57266844,22.2666667 6.01973946,22.6482667 C6.08235072,22.7005333 9.60776422,25.5936 15.9858532,25.5936 C22.4444044,25.5936 25.9151995,22.6797333 25.9495691,22.6504 C26.3955744,22.2669333 27.0693781,22.3184 27.4522393,22.7658667 C27.8353669,23.2133333 27.7839458,23.8866667 27.3368747,24.2701333 Z M4.26289419,8 C4.26289419,7.41093333 4.74007191,6.93333333 5.32861774,6.93333333 C5.91716357,6.93333333 6.39434129,7.41093333 6.39434129,8 L6.39434129,17.5936 C6.39434129,18.1826667 5.91716357,18.6602667 5.32861774,18.6602667 C4.74007191,18.6602667 4.26289419,18.1826667 4.26289419,17.5936 L4.26289419,8 Z M9.59151194,5.86666667 C9.59151194,5.2776 10.0686897,4.8 10.6572355,4.8 C11.2457813,4.8 11.722959,5.2776 11.722959,5.86666667 L11.722959,20.1168 C11.722959,20.7058667 11.2457813,21.1834667 10.6572355,21.1834667 C10.0686897,21.1834667 9.59151194,20.7058667 9.59151194,20.1168 L9.59151194,5.86666667 Z M14.9201297,5.32693333 C14.9201297,4.73786667 15.3973074,4.26026667 15.9858532,4.26026667 C16.5743991,4.26026667 17.0515768,4.73786667 17.0515768,5.32693333 L17.0515768,20.7936 C17.0515768,21.3826667 16.5743991,21.8602667 15.9858532,21.8602667 C15.3973074,21.8602667 14.9201297,21.3826667 14.9201297,20.7936 L14.9201297,5.32693333 Z M20.2487474,5.86666667 C20.2487474,5.2776 20.7259251,4.8 21.314471,4.8 C21.9030168,4.8 22.3801945,5.2776 22.3801945,5.86666667 L22.3801945,20.1168 C22.3801945,20.7058667 21.9030168,21.1834667 21.314471,21.1834667 C20.7259251,21.1834667 20.2487474,20.7058667 20.2487474,20.1168 L20.2487474,5.86666667 Z M27.9752431,0 L3.99646331,0 C1.78934984,0 0,1.79093333 0,4 L0,28 C0,30.2090667 1.78934984,32 3.99646331,32 L27.9752431,32 C30.182623,32 31.9717065,30.2090667 31.9717065,28 L31.9717065,4 C31.9717065,1.79093333 30.182623,0 27.9752431,0 L27.9752431,0 Z" id="Fill-10" fill="#1F8DED" mask="url(#mask-2)"></path>
                        </g>
                    </g>
                    <text id="+" opacity="0.6" font-family="AvenirNext-Regular, Avenir Next" font-size="18" font-weight="normal" letter-spacing="0.163636371" fill="#BAC0C9">
                        <tspan x="139.424182" y="21">+</tspan>
                    </text>
                    <text id="Marek-Dlugos" font-family="Poppins-Regular, Poppins" font-size="16" font-weight="normal" letter-spacing="0.22857143" fill="#4A4A4A">
                        <tspan x="165" y="21.5">Marek Dlugos</tspan>
                    </text>
                </g>
            </g>
        </g>
    </g>
</svg>