<?xml version="1.0" encoding="UTF-8"?>
<svg width="31px" height="32px" viewBox="0 0 31 32" version="1.1" xmlns="http://www.w3.org/2000/svg" xmlns:xlink="http://www.w3.org/1999/xlink">
    <!-- Generator: Sketch 43.2 (39069) - http://www.bohemiancoding.com/sketch -->
    <title>Page 1</title>
    <desc>Created with Sketch.</desc>
    <defs>
        <polygon id="path-1" points="30.9777778 31.4072296 30.9777778 0.55762963 0 0.55762963 0 31.4072296 30.9777778 31.4072296"></polygon>
        <polygon id="path-3" points="0 31.4426667 30.9777778 31.4426667 30.9777778 0.592888889 0 0.592888889"></polygon>
    </defs>
    <g id="Desktop" stroke="none" stroke-width="1" fill="none" fill-rule="evenodd">
        <g id="Homepage" transform="translate(-780.000000, -3550.000000)">
            <g id="Portfolio" transform="translate(74.000000, 3529.000000)">
                <g id="Buttons-/-Portfolio-Copy" transform="translate(677.000000, 0.000000)">
                    <g id="Page-1" transform="translate(29.000000, 21.000000)">
                        <g id="Group-3" transform="translate(0.000000, 0.035259)">
                            <mask id="mask-2" fill="white">
                                <use xlink:href="#path-1"></use>
                            </mask>
                            <g id="Clip-2"></g>
                            <path d="M2.69902222,2.6256 C2.35176296,2.6256 2.06791111,2.90885926 2.06791111,3.25671111 L2.06791111,28.7079704 C2.06791111,29.0564148 2.35176296,29.3390815 2.69902222,29.3390815 L28.2776889,29.3390815 C28.6267259,29.3390815 28.9099852,29.0564148 28.9099852,28.7079704 L28.9099852,3.25671111 C28.9099852,2.90885926 28.6267259,2.6256 28.2776889,2.6256 L2.69902222,2.6256 Z M28.2776889,31.4072296 L2.69902222,31.4072296 C1.21042963,31.4072296 -0.000237037037,30.1959704 -0.000237037037,28.7079704 L-0.000237037037,3.25671111 C-0.000237037037,1.76811852 1.21042963,0.557451852 2.69902222,0.557451852 L28.2776889,0.557451852 C29.7674667,0.557451852 30.9781333,1.76811852 30.9781333,3.25671111 L30.9781333,28.7079704 C30.9781333,30.1959704 29.7674667,31.4072296 28.2776889,31.4072296 L28.2776889,31.4072296 Z" id="Fill-1" fill="#1F8CEB" mask="url(#mask-2)"></path>
                        </g>
                        <path d="M17.1816889,5.75460741 L17.1816889,15.8523852 C17.0471704,15.5051259 16.8528,15.3534222 16.5434667,15.2716444 C16.5434667,15.2716444 15.0507259,14.7454222 12.8587259,14.4112 L12.8587259,13.918163 C12.8587259,13.918163 13.2990222,13.4399407 13.4062815,12.9054222 C13.4062815,12.9054222 13.8187259,12.8740148 13.9929481,12.3655704 C13.9929481,12.3655704 14.6928,10.7614222 14.1523556,10.6826074 L13.9313185,10.7146074 C13.9313185,10.7146074 14.5659852,9.09564444 13.5810963,7.74453333 C13.5810963,7.74453333 13.1846519,7.20586667 12.0729481,7.26927407 C12.0729481,7.26927407 10.897837,6.74542222 9.97635556,7.20586667 C9.97635556,7.20586667 8.88065185,7.68231111 8.53161481,8.76142222 C8.53161481,8.76142222 8.3728,9.98453333 8.51502222,10.4443852 C8.51502222,10.4443852 8.10257778,10.4603852 8.16657778,10.8574222 C8.16657778,10.8574222 8.11917037,12.4135704 8.91265185,12.7792 L9.02405926,12.8260148 C9.02405926,12.8260148 9.2048,13.7664593 9.5325037,13.9412741 L9.53131852,14.4189037 C9.53131852,14.4189037 7.56391111,14.632237 6.1648,15.2556444 C6.1648,15.2556444 5.75828148,15.3664593 5.55205926,15.7729778 L5.55205926,5.75460741 L17.1816889,5.75460741 Z M4.85872593,18.0775704 L17.8750222,18.0775704 L17.8750222,5.06186667 L4.85872593,5.06186667 L4.85872593,18.0775704 Z" id="Fill-4" fill="#1F8CEB"></path>
                        <mask id="mask-4" fill="white">
                            <use xlink:href="#path-3"></use>
                        </mask>
                        <g id="Clip-7"></g>
                        <polygon id="Fill-6" fill="#1F8CEB" mask="url(#mask-4)" points="5.05185185 22.3831111 25.168 22.3831111 25.168 20.7955556 5.05185185 20.7955556"></polygon>
                        <polygon id="Fill-8" fill-opacity="0.9" fill="#1F8CEB" mask="url(#mask-4)" points="5.05185185 26.9419259 25.168 26.9419259 25.168 25.3543704 5.05185185 25.3543704"></polygon>
                    </g>
                </g>
            </g>
        </g>
    </g>
</svg>