<?xml version="1.0" encoding="UTF-8"?>
<svg width="258px" height="312px" viewBox="0 0 258 312" version="1.1" xmlns="http://www.w3.org/2000/svg" xmlns:xlink="http://www.w3.org/1999/xlink">
    <!-- Generator: Sketch 43.2 (39069) - http://www.bohemiancoding.com/sketch -->
    <title>documents</title>
    <desc>Created with Sketch.</desc>
    <defs></defs>
    <g id="Page-1" stroke="none" stroke-width="1" fill="none" fill-rule="evenodd">
        <g id="Illo_Exploration" transform="translate(-658.000000, -434.000000)">
            <g id="Group" transform="translate(270.000000, 227.000000)">
                <g id="documents" transform="translate(390.000000, 209.000000)">
                    <g id="front_4_">
                        <rect id="base_7_" stroke="#1485E0" stroke-width="3.9998805" fill="#FFFFFF" transform="translate(126.770420, 154.011460) rotate(-14.999329) translate(-126.770420, -154.011460) " x="31.7732582" y="20.5154484" width="189.994324" height="266.992023"></rect>
                        <g id="lines_3_" transform="translate(13.000000, 28.000000)" stroke="#C4E1F7">
                            <path d="M22.4,20.6 L87.4,263" id="XMLID_268_" stroke-width="2"></path>
                            <path d="M0.4,46.6 L173.3,0.3" id="XMLID_267_"></path>
                            <path d="M2.5,54.4 L175.4,8" id="XMLID_266_"></path>
                            <path d="M4.6,62.1 L177.5,15.8" id="XMLID_265_"></path>
                            <path d="M6.7,69.8 L179.6,23.5" id="XMLID_264_"></path>
                            <path d="M8.7,77.6 L181.6,31.2" id="XMLID_263_"></path>
                            <path d="M10.8,85.3 L183.7,39" id="XMLID_262_"></path>
                            <path d="M12.9,93 L185.8,46.7" id="XMLID_261_"></path>
                            <path d="M14.9,100.7 L187.8,54.4" id="XMLID_260_"></path>
                            <path d="M17,108.5 L189.9,62.1" id="XMLID_259_"></path>
                            <path d="M19.1,116.2 L192,69.9" id="XMLID_258_"></path>
                            <path d="M21.1,123.9 L194,77.6" id="XMLID_257_"></path>
                            <path d="M23.2,131.6 L196.1,85.3" id="XMLID_256_"></path>
                            <path d="M25.3,139.4 L198.2,93" id="XMLID_255_"></path>
                            <path d="M27.4,147.1 L200.3,100.8" id="XMLID_254_"></path>
                            <path d="M29.4,154.8 L202.3,108.5" id="XMLID_253_"></path>
                            <path d="M31.5,162.6 L204.4,116.2" id="XMLID_252_"></path>
                            <path d="M33.6,170.3 L206.5,124" id="XMLID_251_"></path>
                            <path d="M35.6,178 L208.5,131.7" id="XMLID_250_"></path>
                            <path d="M37.7,185.7 L210.6,139.4" id="XMLID_249_"></path>
                            <path d="M39.8,193.5 L212.7,147.1" id="XMLID_248_"></path>
                            <path d="M41.9,201.2 L214.8,154.9" id="XMLID_247_"></path>
                            <path d="M43.9,208.9 L216.8,162.6" id="XMLID_246_"></path>
                            <path d="M46,216.6 L218.9,170.3" id="XMLID_245_"></path>
                            <path d="M48.1,224.4 L221,178" id="XMLID_244_"></path>
                            <path d="M50.1,232.1 L223,185.8" id="XMLID_243_"></path>
                            <path d="M52.2,239.8 L225.1,193.5" id="XMLID_242_"></path>
                            <path d="M54.3,247.6 L227.2,201.2" id="XMLID_241_"></path>
                            <path d="M56.3,255.3 L229.2,209" id="XMLID_240_"></path>
                            <path d="M58.4,263 L231.3,216.7" id="XMLID_239_"></path>
                        </g>
                        <g id="holes_3_" transform="translate(16.000000, 66.000000)">
                            <g id="XMLID_238_" transform="translate(56.000000, 206.000000)">
                                <path d="M5.1,9.6 C3.3,9.6 1.7,8.4 1.2,6.6 C0.6,4.5 1.9,2.3 4,1.7 C4.3,1.6 4.7,1.6 5,1.6 C6.8,1.6 8.4,2.8 8.9,4.6 C9.5,6.7 8.2,8.9 6.1,9.5 C5.8,9.5 5.5,9.6 5.1,9.6 L5.1,9.6 Z" id="XMLID_507_" fill="#FFFFFF"></path>
                                <path d="M5.1,2.6 L5.1,2.6 C6.5,2.6 7.6,3.5 8,4.8 C8.4,6.4 7.5,8 5.9,8.5 C5.6,8.6 5.4,8.6 5.1,8.6 C3.7,8.6 2.6,7.7 2.2,6.4 C1.8,4.8 2.7,3.2 4.3,2.7 C4.6,2.6 4.9,2.6 5.1,2.6 L5.1,2.6 Z M5.1,0.6 C4.7,0.6 4.2,0.7 3.8,0.8 C1.1,1.5 -0.5,4.3 0.3,6.9 C0.9,9.1 2.9,10.6 5.1,10.6 C5.5,10.6 6,10.5 6.4,10.4 C9.1,9.7 10.7,6.9 9.9,4.3 C9.4,2 7.3,0.6 5.1,0.6 L5.1,0.6 L5.1,0.6 Z" id="XMLID_504_" fill="#1485E0"></path>
                            </g>
                            <g id="XMLID_237_" transform="translate(28.000000, 103.000000)">
                                <path d="M5.6,9.7 C3.8,9.7 2.2,8.5 1.7,6.7 C1.4,5.7 1.6,4.6 2.1,3.7 C2.6,2.8 3.5,2.1 4.5,1.8 C4.8,1.7 5.2,1.7 5.5,1.7 C7.3,1.7 8.9,2.9 9.4,4.7 C9.7,5.7 9.5,6.8 9,7.7 C8.5,8.6 7.6,9.3 6.6,9.6 C6.3,9.7 5.9,9.7 5.6,9.7 L5.6,9.7 Z" id="XMLID_502_" fill="#FFFFFF"></path>
                                <path d="M5.6,2.7 L5.6,2.7 C7,2.7 8.1,3.6 8.5,4.9 C8.7,5.7 8.6,6.5 8.2,7.2 C7.8,7.9 7.2,8.4 6.4,8.6 C6.1,8.7 5.9,8.7 5.6,8.7 C4.2,8.7 3.1,7.8 2.7,6.5 C2.5,5.7 2.6,4.9 3,4.2 C3.4,3.5 4,3 4.8,2.8 C5.1,2.7 5.3,2.7 5.6,2.7 L5.6,2.7 Z M5.6,0.7 C5.2,0.7 4.7,0.8 4.3,0.9 C1.6,1.6 1.14352972e-13,4.4 0.8,7 C1.4,9.2 3.4,10.7 5.6,10.7 C6,10.7 6.5,10.6 6.9,10.5 C9.6,9.8 11.2,7 10.4,4.4 C9.8,2.2 7.8,0.7 5.6,0.7 L5.6,0.7 L5.6,0.7 Z" id="XMLID_499_" fill="#1485E0"></path>
                            </g>
                            <g id="XMLID_236_">
                                <path d="M6,9.8 C4.2,9.8 2.6,8.6 2.1,6.8 C1.5,4.7 2.8,2.5 4.9,1.9 C5.2,1.8 5.6,1.8 5.9,1.8 C7.7,1.8 9.3,3 9.8,4.8 C10.4,6.9 9.1,9.1 7,9.7 C6.7,9.8 6.4,9.8 6,9.8 L6,9.8 Z" id="XMLID_497_" fill="#FFFFFF"></path>
                                <path d="M6,2.8 L6,2.8 C7.4,2.8 8.5,3.7 8.9,5 C9.3,6.6 8.4,8.2 6.8,8.7 C6.5,8.8 6.3,8.8 6,8.8 C4.6,8.8 3.5,7.9 3.1,6.6 C2.9,5.8 3,5 3.4,4.3 C3.8,3.6 4.4,3.1 5.2,2.9 C5.5,2.9 5.7,2.8 6,2.8 L6,2.8 Z M6,0.8 C5.6,0.8 5.1,0.9 4.7,1 C2,1.7 0.4,4.5 1.2,7.1 C1.8,9.3 3.8,10.8 6,10.8 C6.4,10.8 6.9,10.7 7.3,10.6 C10,9.9 11.6,7.1 10.8,4.5 C10.2,2.3 8.2,0.8 6,0.8 L6,0.8 L6,0.8 Z" id="XMLID_494_" fill="#1485E0"></path>
                            </g>
                        </g>
                    </g>
                    <g id="front_3_" transform="translate(32.000000, 21.000000)">
                        <rect id="base_6_" stroke="#1485E0" stroke-width="4" fill="#FFFFFF" x="0" y="0" width="190" height="267"></rect>
                        <g id="lines_1_" transform="translate(6.000000, 8.000000)" stroke="#C4E1F7">
                            <path d="M28,0 L28,251" id="XMLID_235_" stroke-width="2"></path>
                            <path d="M0,19.5 L179,19.5" id="XMLID_234_"></path>
                            <path d="M0,27.5 L179,27.5" id="XMLID_233_"></path>
                            <path d="M0,35.5 L179,35.5" id="XMLID_232_"></path>
                            <path d="M0,43.5 L179,43.5" id="XMLID_231_"></path>
                            <path d="M0,51.5 L179,51.5" id="XMLID_230_"></path>
                            <path d="M0,59.5 L179,59.5" id="XMLID_229_"></path>
                            <path d="M0,67.5 L179,67.5" id="XMLID_228_"></path>
                            <path d="M0,75.5 L179,75.5" id="XMLID_227_"></path>
                            <path d="M0,83.5 L179,83.5" id="XMLID_226_"></path>
                            <path d="M0,91.5 L179,91.5" id="XMLID_225_"></path>
                            <path d="M0,99.5 L179,99.5" id="XMLID_224_"></path>
                            <path d="M0,107.5 L179,107.5" id="XMLID_223_"></path>
                            <path d="M0,115.5 L179,115.5" id="XMLID_222_"></path>
                            <path d="M0,123.5 L179,123.5" id="XMLID_221_"></path>
                            <path d="M0,131.5 L179,131.5" id="XMLID_220_"></path>
                            <path d="M0,139.5 L179,139.5" id="XMLID_219_"></path>
                            <path d="M0,147.5 L179,147.5" id="XMLID_218_"></path>
                            <path d="M0,155.5 L179,155.5" id="XMLID_217_"></path>
                            <path d="M0,163.5 L179,163.5" id="XMLID_216_"></path>
                            <path d="M0,171.5 L179,171.5" id="XMLID_215_"></path>
                            <path d="M0,179.5 L179,179.5" id="XMLID_214_"></path>
                            <path d="M0,187.5 L179,187.5" id="XMLID_213_"></path>
                            <path d="M0,195.5 L179,195.5" id="XMLID_212_"></path>
                            <path d="M0,203.5 L179,203.5" id="XMLID_211_"></path>
                            <path d="M0,211.5 L179,211.5" id="XMLID_210_"></path>
                            <path d="M0,219.5 L179,219.5" id="XMLID_209_"></path>
                            <path d="M0,227.5 L179,227.5" id="XMLID_208_"></path>
                            <path d="M0,235.5 L179,235.5" id="XMLID_207_"></path>
                            <path d="M0,243.5 L179,243.5" id="XMLID_206_"></path>
                        </g>
                        <g id="holes_1_" transform="translate(9.000000, 21.000000)">
                            <g id="XMLID_205_" transform="translate(0.000000, 213.000000)">
                                <path d="M5.8,9.5 C3.6,9.5 1.8,7.7 1.8,5.5 C1.8,3.3 3.6,1.5 5.8,1.5 C8,1.5 9.8,3.3 9.8,5.5 C9.8,7.7 8.1,9.5 5.8,9.5 L5.8,9.5 Z" id="XMLID_525_" fill="#FFFFFF"></path>
                                <path d="M5.8,2.5 C7.5,2.5 8.8,3.8 8.8,5.5 C8.8,7.2 7.5,8.5 5.8,8.5 C4.1,8.5 2.8,7.2 2.8,5.5 C2.8,3.8 4.2,2.5 5.8,2.5 L5.8,2.5 Z M5.8,0.5 C3,0.5 0.8,2.7 0.8,5.5 C0.8,8.3 3,10.5 5.8,10.5 C8.6,10.5 10.8,8.3 10.8,5.5 C10.8,2.7 8.6,0.5 5.8,0.5 L5.8,0.5 L5.8,0.5 Z" id="XMLID_490_" fill="#1485E0"></path>
                            </g>
                            <g id="XMLID_204_" transform="translate(0.000000, 107.000000)">
                                <path d="M5.8,9 C3.6,9 1.8,7.2 1.8,5 C1.8,2.8 3.6,1 5.8,1 C8,1 9.8,2.8 9.8,5 C9.8,7.2 8.1,9 5.8,9 L5.8,9 Z" id="XMLID_531_" fill="#FFFFFF"></path>
                                <path d="M5.8,2 C7.5,2 8.8,3.3 8.8,5 C8.8,6.7 7.5,8 5.8,8 C4.1,8 2.8,6.7 2.8,5 C2.8,3.3 4.2,2 5.8,2 L5.8,2 Z M5.8,0 C3,0 0.8,2.2 0.8,5 C0.8,7.8 3,10 5.8,10 C8.6,10 10.8,7.8 10.8,5 C10.8,2.2 8.6,0 5.8,0 L5.8,0 L5.8,0 Z" id="XMLID_526_" fill="#1485E0"></path>
                            </g>
                            <g id="XMLID_203_">
                                <path d="M5.8,9.5 C3.6,9.5 1.8,7.7 1.8,5.5 C1.8,3.3 3.6,1.5 5.8,1.5 C8,1.5 9.8,3.3 9.8,5.5 C9.8,7.7 8.1,9.5 5.8,9.5 L5.8,9.5 Z" id="XMLID_549_" fill="#FFFFFF"></path>
                                <path d="M5.8,2.5 C7.5,2.5 8.8,3.8 8.8,5.5 C8.8,7.2 7.5,8.5 5.8,8.5 C4.1,8.5 2.8,7.2 2.8,5.5 C2.8,3.8 4.2,2.5 5.8,2.5 L5.8,2.5 Z M5.8,0.5 C3,0.5 0.8,2.7 0.8,5.5 C0.8,8.3 3,10.5 5.8,10.5 C8.6,10.5 10.8,8.3 10.8,5.5 C10.8,2.7 8.6,0.5 5.8,0.5 L5.8,0.5 L5.8,0.5 Z" id="XMLID_532_" fill="#1485E0"></path>
                            </g>
                        </g>
                    </g>
                </g>
            </g>
        </g>
    </g>
</svg>