<?xml version="1.0" encoding="UTF-8"?>
<svg width="301px" height="116px" viewBox="0 0 301 116" version="1.1" xmlns="http://www.w3.org/2000/svg" xmlns:xlink="http://www.w3.org/1999/xlink">
    <!-- Generator: Sketch 43.2 (39069) - http://www.bohemiancoding.com/sketch -->
    <title>creativemarket</title>
    <desc>Created with Sketch.</desc>
    <defs></defs>
    <g id="Page-1" stroke="none" stroke-width="1" fill="none" fill-rule="evenodd">
        <g id="creativemarket" fill-rule="nonzero" fill="#8BA651">
            <path d="M94,95.5 L90.8,95.5 C90.6,95.5 90.4,95.6 90.3,95.8 L84.6,105.3 C84.3,105.6 84.1,105.6 83.9,105.3 L78.4,95.8 C78.3,95.6 78.1,95.5 77.9,95.5 L74.8,95.5 C74.4,95.5 74.1,95.8 74.1,96.2 L74.1,115.2 C74.1,115.6 74.4,115.9 74.8,115.9 L77.9,115.9 C78.3,115.9 78.6,115.6 78.6,115.2 L78.6,105.4 C78.6,104.8 79.2,104.5 79.6,105 L83.9,112 C84.2,112.4 84.7,112.4 84.9,112 L89.3,105 C89.7,104.5 90.3,104.8 90.3,105.4 L90.3,115.2 C90.3,115.6 90.6,115.9 91,115.9 L94.2,115.9 C94.6,115.9 94.9,115.6 94.9,115.2 L94.9,96.2 C94.7,95.8 94.4,95.5 94,95.5 Z" id="Shape"></path>
            <path d="M117.9,95.9 C117.8,95.7 117.6,95.5 117.3,95.5 L113.9,95.5 C113.6,95.5 113.4,95.7 113.3,95.9 L104.9,114.9 C104.7,115.3 105,115.8 105.5,115.8 L108.9,115.8 C109.2,115.8 109.4,115.6 109.5,115.4 L110.7,112.2 C110.8,112 111,111.8 111.3,111.8 L119.8,111.8 C120.1,111.8 120.3,112 120.4,112.2 L121.7,115.4 C121.8,115.6 122,115.8 122.3,115.8 L125.6,115.8 C126.1,115.8 126.4,115.3 126.2,114.9 L117.9,95.9 Z M117.8,107.9 L113.5,107.9 C113,107.9 112.7,107.4 112.9,107 L115.1,101.5 C115.3,101 116.1,101 116.3,101.5 L118.5,107 C118.6,107.4 118.2,107.9 117.8,107.9 Z" id="Shape"></path>
            <path d="M176.1,104.8 C175.9,104.6 175.9,104.2 176.1,104 L182.2,96.5 C182.5,96.1 182.2,95.5 181.7,95.5 L178.3,95.5 C178.1,95.5 177.9,95.6 177.8,95.7 L170.9,104.3 C170.5,104.8 169.8,104.5 169.8,103.9 L169.8,96.1 C169.8,95.7 169.5,95.5 169.2,95.5 L166.2,95.5 C165.8,95.5 165.6,95.8 165.6,96.1 L165.6,115.2 C165.6,115.6 165.9,115.8 166.2,115.8 L169.2,115.8 C169.6,115.8 169.8,115.5 169.8,115.2 L169.8,111.9 C169.8,111.8 169.9,111.6 169.9,111.5 L172.5,108.4 C172.8,108.1 173.3,108.1 173.5,108.4 L178.5,115.6 C178.6,115.8 178.8,115.9 179,115.9 L182.8,115.9 C183.3,115.9 183.6,115.3 183.3,114.9 L176.1,104.8 Z" id="Shape"></path>
            <path d="M209,111.9 L199.4,111.9 C199,111.9 198.7,111.6 198.7,111.2 L198.7,108.2 C198.7,107.8 199,107.5 199.4,107.5 L205.8,107.5 C206.2,107.5 206.5,107.2 206.5,106.8 L206.5,104.6 C206.5,104.2 206.2,103.9 205.8,103.9 L199.4,103.9 C199,103.9 198.7,103.6 198.7,103.2 L198.7,100.3 C198.7,99.9 199,99.6 199.4,99.6 L208.3,99.6 C208.7,99.6 209,99.3 209,98.9 L209,96.4 C209,96 208.7,95.7 208.3,95.7 L195,95.7 C194.6,95.7 194.3,96 194.3,96.4 L194.3,115.3 C194.3,115.7 194.6,116 195,116 L209,116 C209.4,116 209.7,115.7 209.7,115.3 L209.7,112.8 C209.8,112.2 209.4,111.9 209,111.9 Z" id="Shape"></path>
            <path d="M236.3,95.5 L220,95.5 C219.6,95.5 219.4,95.8 219.4,96.1 L219.4,98.7 C219.4,99.1 219.7,99.3 220,99.3 L225.3,99.3 C225.7,99.3 225.9,99.6 225.9,99.9 L225.9,115 C225.9,115.4 226.2,115.6 226.5,115.6 L229.6,115.6 C230,115.6 230.2,115.3 230.2,115 L230.2,99.9 C230.2,99.5 230.5,99.3 230.8,99.3 L236.1,99.3 C236.5,99.3 236.7,99 236.7,98.7 L236.7,96.1 C236.9,95.8 236.6,95.5 236.3,95.5 Z" id="Shape"></path>
            <path d="M153.7,103 C153.7,98.6 150.3,95.4 144.5,95.4 C142.4,95.4 140.3,95.4 138.1,95.5 C137.7,95.5 137.5,95.8 137.5,96.1 L137.5,115.1 C137.5,115.5 137.8,115.7 138.1,115.7 L141.2,115.7 C141.6,115.7 141.8,115.4 141.8,115.1 L141.8,111.1 C141.8,110.6 141.9,110.5 142.5,110.5 L144.9,110.5 L145.3,110.5 L145.3,110.5 C146,110.5 146.2,110.4 146.4,110.8 L148.7,115.4 C148.8,115.6 149,115.8 149.3,115.8 L152.8,115.8 C153.3,115.8 153.6,115.3 153.4,114.9 L150.7,109.6 C150.6,109.3 150.7,109 150.9,108.8 C152.5,107.5 153.7,105.7 153.7,103 Z M144.8,106.6 C144,106.6 143.2,106.7 142.4,106.6 C142,106.6 141.8,106.3 141.8,106 L141.8,99.9 C141.8,99.5 142.1,99.3 142.4,99.3 C143.1,99.3 143.8,99.3 144.7,99.4 C147.3,99.5 149.3,100.7 149.3,103 C149.3,104.9 147.9,106.4 144.8,106.6 Z" id="Shape"></path>
            <path d="M297.4,55.5 C297.1,55.8 294.6,71.2 283.6,71.2 C279.3,71.2 276.3,68 274.5,64.1 C287.9,61.1 292.4,50.5 292.4,43.3 C292.4,34.9 286.4,31.8 281.3,31.8 C273,31.8 262.1,39.6 262.1,54.7 C262.1,56.1 262.2,57.4 262.3,58.6 C259.4,57.7 256.9,56.2 255.2,53.6 C257.7,42.4 257.3,31.7 252.1,31.7 C249.2,31.7 246.7,35.5 246.7,43.9 C246.7,47.2 247.6,50.9 249.3,54.2 C248.2,59.3 244.6,71.7 239.9,71.7 C233.5,71.7 235.5,41.2 235.5,36.7 C235.5,33 226.6,29.2 224.7,31.1 C223.9,31.9 223.7,36.9 223.7,43.3 C223.7,48.6 224.1,54.8 225.3,60.6 C224.7,63.7 222,71.8 217.1,71.8 C209.5,71.8 213.3,42.9 213.3,38.3 C213.3,35 204.8,31.9 202.7,33.9 C201.9,34.7 201.3,40.6 201.3,49.7 C201.3,53.5 201.5,57.5 202.1,61.3 C201.3,65.3 198.1,71.8 193,71.8 C184.8,71.8 188.4,40.2 190.6,20.7 C191.9,20.5 193.3,20.3 194.7,20.1 C198.3,19.7 202.7,19 202.7,21.2 C202.7,26.3 206.1,27.9 208.6,27.9 C211.4,27.9 213.8,25.7 213.8,21.5 C213.8,17.4 210.2,13.5 203.9,13.5 C199.7,13.5 195.4,14 191.2,14.7 C191.5,11.4 191.8,8.9 191.8,7.3 C191.8,3 182.9,-1.2 181.1,0.6 C180.8,0.9 179.6,7.7 178.5,17.2 C172.3,18.4 166.2,19.5 160.1,19.5 C158,19.5 158.3,25.9 165.4,25.9 C169.5,25.9 173.6,25 177.8,23.9 C177.2,30.5 176.8,37.8 176.8,44.8 C176.8,51.1 177.2,56.6 178,61.3 C177.2,64.8 174.7,71.9 170,71.9 C161,71.9 165.3,40.8 165.3,36.2 C165.3,34 157.1,29.2 155.4,30.9 C155.2,31.1 155,32.5 155,32.5 C155,32.5 153.9,31.7 150.9,31.7 C139.4,31.7 130.2,45.9 130.2,58.8 C130.2,59.4 130.2,60 130.3,60.6 C128.5,64.8 124,72 115.9,72 C111.8,72 108.9,69.3 106.9,65.8 C119.5,62.2 124.4,51.2 124.4,44.1 C124.4,35.8 117.4,31.7 112.3,31.7 C103.4,31.7 93.7,40.6 93.7,55.6 C93.7,60 94.5,63.7 95.9,66.9 C94.3,69.4 91.9,71.9 88.6,71.9 C79.4,71.9 85.6,41 85.6,37.7 C85.6,36.9 85.6,35.3 84.1,34.3 C82.2,32.9 71.1,31.5 67.4,30.7 L67.4,28.5 C67.4,22.5 63.7,21.2 61.2,21.2 C57.1,21.2 56.3,25.8 56.3,26.9 C56.3,28 56.6,31.9 60.7,34.2 C60.7,45.3 53.6,71.6 34.6,71.6 C20.2,71.6 15,56.8 15,45.8 C15,27.2 25.9,12.9 32.9,12.9 C41.7,12.9 33.9,30 42.8,30 C49,30 49.9,24 49.9,21.2 C49.9,16 44.5,6.3 32.9,6.3 C14.5,6.3 0.9,28.7 0.9,47.9 C0.9,66.4 13.6,81.2 31.4,81.2 C58.9,81.2 65.7,52 67.1,35.7 C68.9,36.2 73.2,37 73.6,37.4 C74.3,38.1 72.2,48 72.2,57.5 C72.2,69.4 76.1,79 85.5,79 C91.4,79 96.1,74.7 98.6,71.4 C102.4,76.3 107.9,78.8 113.3,78.8 C122.6,78.8 128.7,73 131.7,68.4 C134.3,75.4 139.6,78.8 144.4,78.8 C151.1,78.8 155.1,69.8 155.3,68.4 C157.3,74.7 162,79 167.3,79 C174,79 178.1,72.9 179.7,69.1 C182.1,75.5 185.9,79 191.4,79 C197.7,79 201.8,73.3 203.7,69.5 C205.7,75.1 209,79 214.2,79 C221.2,79 225.6,71.8 227,68.2 C229.3,74.4 232.9,78.8 238.5,78.8 C244.7,78.8 250.1,69.9 253.3,59.9 C255.9,62.4 259.3,64.2 263.4,64.7 C266.5,73.7 273.8,78.7 281.5,78.7 C294.9,78.7 300.1,64.9 300.7,61.7 C301.5,58.4 298.4,54.5 297.4,55.5 Z M111.9,36 C117.5,36 114.2,57.4 105,60.9 C104.3,58.6 104,56.4 104,54.7 C103.9,47.5 106.8,36 111.9,36 Z M146,70 C136.2,70 143.1,36.1 150.9,36.1 C156.1,36.1 155.3,70 146,70 Z M280,36.2 C285.4,36.2 282.3,58.3 272.9,59.7 C272.4,57.9 272.2,56.1 272.2,54.7 C272.2,47.5 274.9,36.2 280,36.2 Z" id="Shape"></path>
        </g>
    </g>
</svg>