<?xml version="1.0" encoding="UTF-8"?>
<svg width="32px" height="32px" viewBox="0 0 32 32" version="1.1" xmlns="http://www.w3.org/2000/svg" xmlns:xlink="http://www.w3.org/1999/xlink">
    <!-- Generator: Sketch 43.2 (39069) - http://www.bohemiancoding.com/sketch -->
    <title>Shape</title>
    <desc>Created with Sketch.</desc>
    <defs></defs>
    <g id="Desktop" stroke="none" stroke-width="1" fill="none" fill-rule="evenodd">
        <g id="Homepage" transform="translate(-1001.000000, -3550.000000)" fill-rule="nonzero" fill="#F6A623">
            <g id="Portfolio" transform="translate(74.000000, 3393.000000)">
                <g id="Buttons-/-Portfolio-Copy-2" transform="translate(429.000000, 0.000000)">
                    <g id="user-account-box-1" transform="translate(498.000000, 157.000000)">
                        <path d="M28.4444444,0 L3.55555556,0 C1.6,0 0,1.6 0,3.55555556 L0,28.4444444 C0,30.4 1.6,32 3.55555556,32 L28.4444444,32 C30.4,32 32,30.4 32,28.4444444 L32,3.55555556 C32,1.6 30.4,0 28.4444444,0 Z M26.6666667,26.6666667 L16,26.6666667 L16,16.3555556 C14.7555556,17.4222919 13.3333333,18.1333333 11.5555556,18.1333333 C8,18.1333333 4.97777778,15.1111111 4.97777778,11.5555556 C4.97777778,8 8,4.97777778 11.5555556,4.97777778 C15.1111111,4.97777778 18.1333333,8 18.1333333,11.5555556 C18.1333333,13.3333333 17.4222919,14.7555556 16.3555556,16 L26.6666667,16 L26.6666667,26.6666667 Z" id="Shape"></path>
                    </g>
                </g>
            </g>
        </g>
    </g>
</svg>